<mxfile host="app.diagrams.net" modified="2024-05-26T18:27:54.366Z" agent="Mozilla/5.0 (Windows NT 10.0; Win64; x64) AppleWebKit/537.36 (KHTML, like Gecko) Chrome/125.0.0.0 Safari/537.36" etag="Sr49lukx6mhtKI2oSX03" version="24.4.8" type="github">
  <diagram id="C5RBs43oDa-KdzZeNtuy" name="Page-1">
    <mxGraphModel dx="2183" dy="1969" grid="1" gridSize="10" guides="1" tooltips="1" connect="1" arrows="1" fold="1" page="1" pageScale="1" pageWidth="827" pageHeight="1169" math="0" shadow="0">
      <root>
        <mxCell id="WIyWlLk6GJQsqaUBKTNV-0" />
        <mxCell id="WIyWlLk6GJQsqaUBKTNV-1" parent="WIyWlLk6GJQsqaUBKTNV-0" />
        <mxCell id="nw-LskAQN57HLbFkefRe-54" style="edgeStyle=elbowEdgeStyle;rounded=0;orthogonalLoop=1;jettySize=auto;html=1;exitX=0;exitY=0.5;exitDx=0;exitDy=0;entryX=1;entryY=0.704;entryDx=0;entryDy=0;entryPerimeter=0;" parent="WIyWlLk6GJQsqaUBKTNV-1" source="GgVH_stJGBZSjANrIJAW-158" target="GgVH_stJGBZSjANrIJAW-162" edge="1">
          <mxGeometry relative="1" as="geometry">
            <mxPoint x="10" y="-154.75" as="sourcePoint" />
            <mxPoint x="-111.36000000000013" y="-248.48000000000002" as="targetPoint" />
          </mxGeometry>
        </mxCell>
        <mxCell id="mui6yo1SyYNMotn6UMkl-17" value="" style="edgeStyle=elbowEdgeStyle;rounded=0;orthogonalLoop=1;jettySize=auto;html=1;entryX=1;entryY=0.5;entryDx=0;entryDy=0;" parent="WIyWlLk6GJQsqaUBKTNV-1" target="GgVH_stJGBZSjANrIJAW-164" edge="1">
          <mxGeometry relative="1" as="geometry">
            <Array as="points">
              <mxPoint x="-40" y="-40" />
            </Array>
            <mxPoint x="170" y="-310" as="sourcePoint" />
            <mxPoint x="-110.32000000000016" y="-218.45000000000027" as="targetPoint" />
          </mxGeometry>
        </mxCell>
        <mxCell id="nw-LskAQN57HLbFkefRe-59" style="edgeStyle=elbowEdgeStyle;rounded=0;orthogonalLoop=1;jettySize=auto;html=1;entryX=0.008;entryY=0.334;entryDx=0;entryDy=0;entryPerimeter=0;" parent="WIyWlLk6GJQsqaUBKTNV-1" target="GgVH_stJGBZSjANrIJAW-192" edge="1">
          <mxGeometry relative="1" as="geometry">
            <mxPoint x="140" y="120" as="targetPoint" />
            <mxPoint x="50" y="60" as="sourcePoint" />
            <Array as="points">
              <mxPoint x="95" y="68" />
            </Array>
          </mxGeometry>
        </mxCell>
        <mxCell id="nw-LskAQN57HLbFkefRe-1" value="img_equ" style="swimlane;whiteSpace=wrap;html=1;" parent="WIyWlLk6GJQsqaUBKTNV-1" vertex="1">
          <mxGeometry x="-50" width="100" height="90" as="geometry" />
        </mxCell>
        <mxCell id="nw-LskAQN57HLbFkefRe-6" value="&lt;u&gt;Equ_id&lt;/u&gt;&lt;div&gt;&lt;u&gt;Image_id&lt;/u&gt;&lt;div&gt;&lt;br&gt;&lt;/div&gt;&lt;/div&gt;" style="text;html=1;align=center;verticalAlign=middle;resizable=0;points=[];autosize=1;strokeColor=none;fillColor=none;" parent="nw-LskAQN57HLbFkefRe-1" vertex="1">
          <mxGeometry x="15" y="30" width="70" height="60" as="geometry" />
        </mxCell>
        <mxCell id="nw-LskAQN57HLbFkefRe-101" style="edgeStyle=elbowEdgeStyle;rounded=0;orthogonalLoop=1;jettySize=auto;html=1;exitX=0;exitY=0.5;exitDx=0;exitDy=0;entryX=0;entryY=0.803;entryDx=0;entryDy=0;entryPerimeter=0;" parent="WIyWlLk6GJQsqaUBKTNV-1" source="nw-LskAQN57HLbFkefRe-2" target="GgVH_stJGBZSjANrIJAW-162" edge="1">
          <mxGeometry relative="1" as="geometry">
            <mxPoint x="-249.55000000000018" y="-247.82000000000016" as="targetPoint" />
            <mxPoint x="-240" y="340" as="sourcePoint" />
            <Array as="points">
              <mxPoint x="-270" y="-40" />
              <mxPoint x="-280" y="40" />
              <mxPoint x="-230" y="115" />
            </Array>
          </mxGeometry>
        </mxCell>
        <mxCell id="nw-LskAQN57HLbFkefRe-102" style="edgeStyle=elbowEdgeStyle;rounded=0;orthogonalLoop=1;jettySize=auto;html=1;entryX=0;entryY=0.5;entryDx=0;entryDy=0;" parent="WIyWlLk6GJQsqaUBKTNV-1" target="GgVH_stJGBZSjANrIJAW-232" edge="1">
          <mxGeometry relative="1" as="geometry">
            <mxPoint x="-40" y="370" as="targetPoint" />
            <mxPoint x="-90" y="365" as="sourcePoint" />
          </mxGeometry>
        </mxCell>
        <mxCell id="nw-LskAQN57HLbFkefRe-2" value="rec_thcat" style="swimlane;whiteSpace=wrap;html=1;" parent="WIyWlLk6GJQsqaUBKTNV-1" vertex="1">
          <mxGeometry x="-190" y="300" width="100" height="90" as="geometry" />
        </mxCell>
        <mxCell id="nw-LskAQN57HLbFkefRe-4" value="&lt;u&gt;Rec_id&lt;/u&gt;&lt;div&gt;&lt;u&gt;Themcat_id&lt;/u&gt;&lt;/div&gt;&lt;div&gt;&lt;br&gt;&lt;/div&gt;" style="text;html=1;align=center;verticalAlign=middle;resizable=0;points=[];autosize=1;strokeColor=none;fillColor=none;" parent="nw-LskAQN57HLbFkefRe-2" vertex="1">
          <mxGeometry x="5" y="30" width="90" height="60" as="geometry" />
        </mxCell>
        <mxCell id="nw-LskAQN57HLbFkefRe-112" style="edgeStyle=elbowEdgeStyle;rounded=0;orthogonalLoop=1;jettySize=auto;html=1;entryX=0.001;entryY=0.269;entryDx=0;entryDy=0;entryPerimeter=0;exitX=0;exitY=0.5;exitDx=0;exitDy=0;" parent="WIyWlLk6GJQsqaUBKTNV-1" source="GgVH_stJGBZSjANrIJAW-213" target="GgVH_stJGBZSjANrIJAW-192" edge="1">
          <mxGeometry relative="1" as="geometry">
            <mxPoint x="130" y="20" as="targetPoint" />
            <mxPoint x="190" y="-150" as="sourcePoint" />
            <Array as="points">
              <mxPoint x="130" y="-150" />
              <mxPoint x="130" />
            </Array>
          </mxGeometry>
        </mxCell>
        <mxCell id="nw-LskAQN57HLbFkefRe-96" style="edgeStyle=elbowEdgeStyle;rounded=0;orthogonalLoop=1;jettySize=auto;html=1;" parent="WIyWlLk6GJQsqaUBKTNV-1" edge="1">
          <mxGeometry relative="1" as="geometry">
            <mxPoint x="-110" y="-500" as="targetPoint" />
            <mxPoint x="460" y="-150" as="sourcePoint" />
            <Array as="points">
              <mxPoint x="410" y="-380" />
            </Array>
          </mxGeometry>
        </mxCell>
        <mxCell id="nw-LskAQN57HLbFkefRe-99" style="edgeStyle=elbowEdgeStyle;rounded=0;orthogonalLoop=1;jettySize=auto;html=1;exitX=1;exitY=0.5;exitDx=0;exitDy=0;entryX=0.994;entryY=0.254;entryDx=0;entryDy=0;entryPerimeter=0;" parent="WIyWlLk6GJQsqaUBKTNV-1" source="nw-LskAQN57HLbFkefRe-12" target="GgVH_stJGBZSjANrIJAW-216" edge="1">
          <mxGeometry relative="1" as="geometry">
            <mxPoint x="550" y="60" as="targetPoint" />
            <Array as="points">
              <mxPoint x="580" y="60" />
              <mxPoint x="580" y="-50" />
            </Array>
          </mxGeometry>
        </mxCell>
        <mxCell id="nw-LskAQN57HLbFkefRe-12" value="rec_epi" style="swimlane;whiteSpace=wrap;html=1;" parent="WIyWlLk6GJQsqaUBKTNV-1" vertex="1">
          <mxGeometry x="460" y="-210" width="100" height="88" as="geometry" />
        </mxCell>
        <mxCell id="nw-LskAQN57HLbFkefRe-20" value="&lt;u&gt;Episode_id&lt;/u&gt;&lt;div&gt;&lt;u&gt;Rec_id&lt;/u&gt;&lt;/div&gt;" style="text;html=1;align=center;verticalAlign=middle;resizable=0;points=[];autosize=1;strokeColor=none;fillColor=none;" parent="nw-LskAQN57HLbFkefRe-12" vertex="1">
          <mxGeometry x="10" y="32" width="80" height="40" as="geometry" />
        </mxCell>
        <mxCell id="nw-LskAQN57HLbFkefRe-69" style="edgeStyle=elbowEdgeStyle;rounded=0;orthogonalLoop=1;jettySize=auto;html=1;exitX=0;exitY=0.5;exitDx=0;exitDy=0;entryX=1;entryY=0.5;entryDx=0;entryDy=0;" parent="WIyWlLk6GJQsqaUBKTNV-1" source="nw-LskAQN57HLbFkefRe-13" target="GgVH_stJGBZSjANrIJAW-162" edge="1">
          <mxGeometry relative="1" as="geometry">
            <mxPoint x="-115.39000000000033" y="-253.4300000000003" as="targetPoint" />
            <Array as="points">
              <mxPoint x="16" y="-510" />
            </Array>
          </mxGeometry>
        </mxCell>
        <mxCell id="nw-LskAQN57HLbFkefRe-70" style="edgeStyle=elbowEdgeStyle;rounded=0;orthogonalLoop=1;jettySize=auto;html=1;entryX=0;entryY=0.5;entryDx=0;entryDy=0;" parent="WIyWlLk6GJQsqaUBKTNV-1" target="GgVH_stJGBZSjANrIJAW-226" edge="1">
          <mxGeometry relative="1" as="geometry">
            <mxPoint x="280" y="-2" as="targetPoint" />
            <mxPoint x="240" y="10" as="sourcePoint" />
          </mxGeometry>
        </mxCell>
        <mxCell id="nw-LskAQN57HLbFkefRe-13" value="rec_cui" style="swimlane;whiteSpace=wrap;html=1;" parent="WIyWlLk6GJQsqaUBKTNV-1" vertex="1">
          <mxGeometry x="140" y="-50" width="100" height="92" as="geometry" />
        </mxCell>
        <mxCell id="nw-LskAQN57HLbFkefRe-19" value="&lt;div&gt;&lt;u&gt;Rec_id&lt;/u&gt;&lt;/div&gt;&lt;div&gt;&lt;u&gt;Cui_id&lt;/u&gt;&lt;/div&gt;" style="text;html=1;align=center;verticalAlign=middle;resizable=0;points=[];autosize=1;strokeColor=none;fillColor=none;" parent="nw-LskAQN57HLbFkefRe-13" vertex="1">
          <mxGeometry x="20" y="30" width="60" height="40" as="geometry" />
        </mxCell>
        <mxCell id="nw-LskAQN57HLbFkefRe-14" value="img_rec" style="swimlane;whiteSpace=wrap;html=1;" parent="WIyWlLk6GJQsqaUBKTNV-1" vertex="1">
          <mxGeometry x="-53" y="180" width="100" height="90" as="geometry" />
        </mxCell>
        <mxCell id="nw-LskAQN57HLbFkefRe-18" value="&lt;u&gt;Rec_id&lt;/u&gt;&lt;div&gt;&lt;u&gt;Image_d&lt;/u&gt;&lt;/div&gt;" style="text;html=1;align=center;verticalAlign=middle;resizable=0;points=[];autosize=1;strokeColor=none;fillColor=none;" parent="nw-LskAQN57HLbFkefRe-14" vertex="1">
          <mxGeometry x="10" y="33" width="70" height="40" as="geometry" />
        </mxCell>
        <mxCell id="nw-LskAQN57HLbFkefRe-90" style="edgeStyle=elbowEdgeStyle;rounded=0;orthogonalLoop=1;jettySize=auto;html=1;entryX=1.002;entryY=0.307;entryDx=0;entryDy=0;entryPerimeter=0;" parent="WIyWlLk6GJQsqaUBKTNV-1" target="GgVH_stJGBZSjANrIJAW-140" edge="1">
          <mxGeometry relative="1" as="geometry">
            <mxPoint x="214" y="510" as="targetPoint" />
            <mxPoint x="220" y="330" as="sourcePoint" />
            <Array as="points">
              <mxPoint x="234" y="439" />
            </Array>
          </mxGeometry>
        </mxCell>
        <mxCell id="nw-LskAQN57HLbFkefRe-63" style="edgeStyle=elbowEdgeStyle;rounded=0;orthogonalLoop=1;jettySize=auto;html=1;exitX=0;exitY=0.5;exitDx=0;exitDy=0;entryX=1.005;entryY=0.267;entryDx=0;entryDy=0;entryPerimeter=0;" parent="WIyWlLk6GJQsqaUBKTNV-1" target="GgVH_stJGBZSjANrIJAW-226" edge="1">
          <mxGeometry relative="1" as="geometry">
            <mxPoint x="370" y="20" as="targetPoint" />
            <mxPoint x="460" y="-55" as="sourcePoint" />
            <Array as="points">
              <mxPoint x="420" y="-10" />
            </Array>
          </mxGeometry>
        </mxCell>
        <mxCell id="nw-LskAQN57HLbFkefRe-64" style="edgeStyle=elbowEdgeStyle;rounded=0;orthogonalLoop=1;jettySize=auto;html=1;entryX=1;entryY=0.5;entryDx=0;entryDy=0;" parent="WIyWlLk6GJQsqaUBKTNV-1" target="GgVH_stJGBZSjANrIJAW-216" edge="1">
          <mxGeometry relative="1" as="geometry">
            <mxPoint x="560" y="-40" as="sourcePoint" />
            <mxPoint x="590" y="72" as="targetPoint" />
            <Array as="points">
              <mxPoint x="590" y="7" />
            </Array>
          </mxGeometry>
        </mxCell>
        <mxCell id="nw-LskAQN57HLbFkefRe-23" value="cui_epi" style="swimlane;whiteSpace=wrap;html=1;" parent="WIyWlLk6GJQsqaUBKTNV-1" vertex="1">
          <mxGeometry x="460" y="-90" width="100" height="90" as="geometry" />
        </mxCell>
        <mxCell id="nw-LskAQN57HLbFkefRe-24" value="&lt;u&gt;Cui_id&lt;/u&gt;&lt;div&gt;&lt;u&gt;Episode_id&lt;/u&gt;&lt;/div&gt;" style="text;html=1;align=center;verticalAlign=middle;resizable=0;points=[];autosize=1;strokeColor=none;fillColor=none;" parent="nw-LskAQN57HLbFkefRe-23" vertex="1">
          <mxGeometry x="10" y="25" width="80" height="40" as="geometry" />
        </mxCell>
        <mxCell id="nw-LskAQN57HLbFkefRe-89" style="edgeStyle=elbowEdgeStyle;rounded=0;orthogonalLoop=1;jettySize=auto;html=1;entryX=1.002;entryY=0.767;entryDx=0;entryDy=0;entryPerimeter=0;" parent="WIyWlLk6GJQsqaUBKTNV-1" target="GgVH_stJGBZSjANrIJAW-140" edge="1">
          <mxGeometry relative="1" as="geometry">
            <mxPoint x="200" y="523" as="targetPoint" />
            <mxPoint x="440" y="470" as="sourcePoint" />
          </mxGeometry>
        </mxCell>
        <mxCell id="nw-LskAQN57HLbFkefRe-95" style="edgeStyle=elbowEdgeStyle;rounded=0;orthogonalLoop=1;jettySize=auto;html=1;exitX=1;exitY=0.5;exitDx=0;exitDy=0;" parent="WIyWlLk6GJQsqaUBKTNV-1" source="nw-LskAQN57HLbFkefRe-28" edge="1">
          <mxGeometry relative="1" as="geometry">
            <mxPoint x="570" y="82" as="targetPoint" />
            <Array as="points">
              <mxPoint x="600" y="270" />
            </Array>
          </mxGeometry>
        </mxCell>
        <mxCell id="nw-LskAQN57HLbFkefRe-28" value="chef_epi" style="swimlane;whiteSpace=wrap;html=1;" parent="WIyWlLk6GJQsqaUBKTNV-1" vertex="1">
          <mxGeometry x="440" y="410" width="100" height="90" as="geometry" />
        </mxCell>
        <mxCell id="nw-LskAQN57HLbFkefRe-42" value="&lt;div&gt;&lt;u&gt;Episode_id&lt;/u&gt;&lt;/div&gt;&lt;u&gt;Chef_id&lt;/u&gt;" style="text;html=1;align=center;verticalAlign=middle;resizable=0;points=[];autosize=1;strokeColor=none;fillColor=none;" parent="nw-LskAQN57HLbFkefRe-28" vertex="1">
          <mxGeometry x="10" y="30" width="80" height="40" as="geometry" />
        </mxCell>
        <mxCell id="nw-LskAQN57HLbFkefRe-29" value="Judge" style="swimlane;whiteSpace=wrap;html=1;" parent="WIyWlLk6GJQsqaUBKTNV-1" vertex="1">
          <mxGeometry x="280" y="560" width="100" height="90" as="geometry" />
        </mxCell>
        <mxCell id="nw-LskAQN57HLbFkefRe-44" value="Judge_id&lt;div&gt;Mark&lt;/div&gt;" style="text;html=1;align=center;verticalAlign=middle;resizable=0;points=[];autosize=1;strokeColor=none;fillColor=none;" parent="nw-LskAQN57HLbFkefRe-29" vertex="1">
          <mxGeometry x="15" y="35" width="70" height="40" as="geometry" />
        </mxCell>
        <mxCell id="nw-LskAQN57HLbFkefRe-92" style="edgeStyle=elbowEdgeStyle;rounded=0;orthogonalLoop=1;jettySize=auto;html=1;exitX=1;exitY=0.5;exitDx=0;exitDy=0;entryX=1.012;entryY=0.75;entryDx=0;entryDy=0;entryPerimeter=0;" parent="WIyWlLk6GJQsqaUBKTNV-1" edge="1">
          <mxGeometry relative="1" as="geometry">
            <mxPoint x="380.0000000000001" y="12.5" as="targetPoint" />
            <Array as="points">
              <mxPoint x="400" y="210" />
            </Array>
            <mxPoint x="388.67999999999995" y="405" as="sourcePoint" />
          </mxGeometry>
        </mxCell>
        <mxCell id="nw-LskAQN57HLbFkefRe-93" style="edgeStyle=elbowEdgeStyle;rounded=0;orthogonalLoop=1;jettySize=auto;html=1;entryX=1;entryY=0.5;entryDx=0;entryDy=0;" parent="WIyWlLk6GJQsqaUBKTNV-1" target="GgVH_stJGBZSjANrIJAW-140" edge="1">
          <mxGeometry relative="1" as="geometry">
            <mxPoint x="210" y="530" as="targetPoint" />
            <mxPoint x="290" y="420" as="sourcePoint" />
          </mxGeometry>
        </mxCell>
        <mxCell id="nw-LskAQN57HLbFkefRe-30" value="chef_cui" style="swimlane;whiteSpace=wrap;html=1;" parent="WIyWlLk6GJQsqaUBKTNV-1" vertex="1">
          <mxGeometry x="290" y="360" width="100" height="90" as="geometry" />
        </mxCell>
        <mxCell id="nw-LskAQN57HLbFkefRe-41" value="&lt;div&gt;&lt;u&gt;Cui_ id&lt;/u&gt;&lt;/div&gt;&lt;div&gt;&lt;u&gt;Chef_id&lt;/u&gt;&lt;u&gt;&lt;br&gt;&lt;/u&gt;&lt;/div&gt;" style="text;html=1;align=center;verticalAlign=middle;resizable=0;points=[];autosize=1;strokeColor=none;fillColor=none;" parent="nw-LskAQN57HLbFkefRe-30" vertex="1">
          <mxGeometry x="20" y="30" width="60" height="40" as="geometry" />
        </mxCell>
        <mxCell id="nw-LskAQN57HLbFkefRe-103" style="edgeStyle=elbowEdgeStyle;rounded=0;orthogonalLoop=1;jettySize=auto;html=1;entryX=0.004;entryY=0.615;entryDx=0;entryDy=0;entryPerimeter=0;exitX=1;exitY=0.5;exitDx=0;exitDy=0;" parent="WIyWlLk6GJQsqaUBKTNV-1" source="GgVH_stJGBZSjANrIJAW-233" target="GgVH_stJGBZSjANrIJAW-192" edge="1">
          <mxGeometry relative="1" as="geometry">
            <mxPoint x="80" y="400" as="sourcePoint" />
            <mxPoint x="140" y="145" as="targetPoint" />
            <Array as="points">
              <mxPoint x="80" y="270" />
            </Array>
          </mxGeometry>
        </mxCell>
        <mxCell id="nw-LskAQN57HLbFkefRe-71" style="edgeStyle=elbowEdgeStyle;rounded=0;orthogonalLoop=1;jettySize=auto;html=1;exitX=0;exitY=0.5;exitDx=0;exitDy=0;entryX=1.01;entryY=0.615;entryDx=0;entryDy=0;entryPerimeter=0;" parent="WIyWlLk6GJQsqaUBKTNV-1" source="nw-LskAQN57HLbFkefRe-34" target="GgVH_stJGBZSjANrIJAW-192" edge="1">
          <mxGeometry relative="1" as="geometry">
            <mxPoint x="240" y="140" as="targetPoint" />
            <Array as="points">
              <mxPoint x="260" y="140" />
            </Array>
          </mxGeometry>
        </mxCell>
        <mxCell id="nw-LskAQN57HLbFkefRe-72" style="edgeStyle=elbowEdgeStyle;rounded=0;orthogonalLoop=1;jettySize=auto;html=1;entryX=0;entryY=0.5;entryDx=0;entryDy=0;" parent="WIyWlLk6GJQsqaUBKTNV-1" target="GgVH_stJGBZSjANrIJAW-216" edge="1">
          <mxGeometry relative="1" as="geometry">
            <mxPoint x="450" y="60" as="targetPoint" />
            <mxPoint x="380" y="240" as="sourcePoint" />
            <Array as="points">
              <mxPoint x="390" y="150" />
            </Array>
          </mxGeometry>
        </mxCell>
        <mxCell id="nw-LskAQN57HLbFkefRe-34" value="img_epi" style="swimlane;whiteSpace=wrap;html=1;" parent="WIyWlLk6GJQsqaUBKTNV-1" vertex="1">
          <mxGeometry x="280" y="180" width="100" height="90" as="geometry" />
        </mxCell>
        <mxCell id="nw-LskAQN57HLbFkefRe-37" value="&lt;u&gt;Image_id&lt;/u&gt;&lt;div&gt;&lt;u&gt;Episode_id&lt;/u&gt;&lt;/div&gt;" style="text;html=1;align=center;verticalAlign=middle;resizable=0;points=[];autosize=1;strokeColor=none;fillColor=none;" parent="nw-LskAQN57HLbFkefRe-34" vertex="1">
          <mxGeometry x="10" y="33" width="80" height="40" as="geometry" />
        </mxCell>
        <mxCell id="nw-LskAQN57HLbFkefRe-106" style="edgeStyle=elbowEdgeStyle;rounded=0;orthogonalLoop=1;jettySize=auto;html=1;entryX=1;entryY=0.5;entryDx=0;entryDy=0;exitX=0;exitY=0.5;exitDx=0;exitDy=0;" parent="WIyWlLk6GJQsqaUBKTNV-1" source="GgVH_stJGBZSjANrIJAW-217" target="GgVH_stJGBZSjANrIJAW-192" edge="1">
          <mxGeometry relative="1" as="geometry">
            <mxPoint x="250" y="125" as="targetPoint" />
            <mxPoint x="450" y="70" as="sourcePoint" />
            <Array as="points">
              <mxPoint x="340" y="120" />
            </Array>
          </mxGeometry>
        </mxCell>
        <mxCell id="nw-LskAQN57HLbFkefRe-107" style="edgeStyle=elbowEdgeStyle;rounded=0;orthogonalLoop=1;jettySize=auto;html=1;exitX=0;exitY=0.5;exitDx=0;exitDy=0;entryX=1;entryY=0.5;entryDx=0;entryDy=0;" parent="WIyWlLk6GJQsqaUBKTNV-1" source="GgVH_stJGBZSjANrIJAW-218" target="GgVH_stJGBZSjANrIJAW-226" edge="1">
          <mxGeometry relative="1" as="geometry">
            <mxPoint x="370" y="10" as="targetPoint" />
            <mxPoint x="450" y="75" as="sourcePoint" />
            <Array as="points">
              <mxPoint x="410" y="40" />
            </Array>
          </mxGeometry>
        </mxCell>
        <mxCell id="nw-LskAQN57HLbFkefRe-113" style="edgeStyle=elbowEdgeStyle;rounded=0;orthogonalLoop=1;jettySize=auto;html=1;entryX=1;entryY=0.5;entryDx=0;entryDy=0;exitX=0;exitY=0.5;exitDx=0;exitDy=0;" parent="WIyWlLk6GJQsqaUBKTNV-1" source="GgVH_stJGBZSjANrIJAW-220" target="nw-LskAQN57HLbFkefRe-29" edge="1">
          <mxGeometry relative="1" as="geometry">
            <mxPoint x="450" y="110" as="sourcePoint" />
            <Array as="points">
              <mxPoint x="410" y="400" />
            </Array>
          </mxGeometry>
        </mxCell>
        <mxCell id="nw-LskAQN57HLbFkefRe-57" style="edgeStyle=elbowEdgeStyle;rounded=0;orthogonalLoop=1;jettySize=auto;html=1;exitX=1;exitY=0.5;exitDx=0;exitDy=0;entryX=0.008;entryY=0.212;entryDx=0;entryDy=0;entryPerimeter=0;" parent="WIyWlLk6GJQsqaUBKTNV-1" source="nw-LskAQN57HLbFkefRe-1" target="GgVH_stJGBZSjANrIJAW-210" edge="1">
          <mxGeometry relative="1" as="geometry">
            <mxPoint x="190" y="-200" as="targetPoint" />
            <Array as="points">
              <mxPoint x="120" y="40" />
            </Array>
          </mxGeometry>
        </mxCell>
        <mxCell id="nw-LskAQN57HLbFkefRe-58" style="edgeStyle=elbowEdgeStyle;rounded=0;orthogonalLoop=1;jettySize=auto;html=1;exitX=0.5;exitY=0;exitDx=0;exitDy=0;" parent="WIyWlLk6GJQsqaUBKTNV-1" edge="1">
          <mxGeometry relative="1" as="geometry">
            <mxPoint x="240" y="-240" as="sourcePoint" />
            <mxPoint x="240.2631578947371" y="-240" as="targetPoint" />
          </mxGeometry>
        </mxCell>
        <mxCell id="nw-LskAQN57HLbFkefRe-15" value="img_chef" style="swimlane;whiteSpace=wrap;html=1;" parent="WIyWlLk6GJQsqaUBKTNV-1" vertex="1">
          <mxGeometry x="120" y="270" width="100" height="90" as="geometry" />
        </mxCell>
        <mxCell id="nw-LskAQN57HLbFkefRe-17" value="&lt;u&gt;Image_id&lt;/u&gt;&lt;div&gt;&lt;u&gt;Chef_id&lt;/u&gt;&lt;/div&gt;" style="text;html=1;align=center;verticalAlign=middle;resizable=0;points=[];autosize=1;strokeColor=none;fillColor=none;" parent="nw-LskAQN57HLbFkefRe-15" vertex="1">
          <mxGeometry x="15" y="30" width="70" height="40" as="geometry" />
        </mxCell>
        <mxCell id="mui6yo1SyYNMotn6UMkl-0" value="&lt;b&gt;Ingredients&lt;/b&gt;" style="swimlane;fontStyle=0;childLayout=stackLayout;horizontal=1;startSize=30;horizontalStack=0;resizeParent=1;resizeParentMax=0;resizeLast=0;collapsible=1;marginBottom=0;whiteSpace=wrap;html=1;" parent="WIyWlLk6GJQsqaUBKTNV-1" vertex="1">
          <mxGeometry x="-600" y="-208" width="90" height="180" as="geometry" />
        </mxCell>
        <mxCell id="mui6yo1SyYNMotn6UMkl-1" value="&lt;u&gt;Ing_id&lt;/u&gt;" style="text;strokeColor=none;fillColor=none;align=left;verticalAlign=middle;spacingLeft=4;spacingRight=4;overflow=hidden;points=[[0,0.5],[1,0.5]];portConstraint=eastwest;rotatable=0;whiteSpace=wrap;html=1;" parent="mui6yo1SyYNMotn6UMkl-0" vertex="1">
          <mxGeometry y="30" width="90" height="30" as="geometry" />
        </mxCell>
        <mxCell id="mui6yo1SyYNMotn6UMkl-2" value="Image_id" style="text;strokeColor=none;fillColor=none;align=left;verticalAlign=middle;spacingLeft=4;spacingRight=4;overflow=hidden;points=[[0,0.5],[1,0.5]];portConstraint=eastwest;rotatable=0;whiteSpace=wrap;html=1;" parent="mui6yo1SyYNMotn6UMkl-0" vertex="1">
          <mxGeometry y="60" width="90" height="30" as="geometry" />
        </mxCell>
        <mxCell id="mui6yo1SyYNMotn6UMkl-5" value="Name" style="text;strokeColor=none;fillColor=none;align=left;verticalAlign=middle;spacingLeft=4;spacingRight=4;overflow=hidden;points=[[0,0.5],[1,0.5]];portConstraint=eastwest;rotatable=0;whiteSpace=wrap;html=1;" parent="mui6yo1SyYNMotn6UMkl-0" vertex="1">
          <mxGeometry y="90" width="90" height="30" as="geometry" />
        </mxCell>
        <mxCell id="mui6yo1SyYNMotn6UMkl-3" value="Food_group" style="text;strokeColor=none;fillColor=none;align=left;verticalAlign=middle;spacingLeft=4;spacingRight=4;overflow=hidden;points=[[0,0.5],[1,0.5]];portConstraint=eastwest;rotatable=0;whiteSpace=wrap;html=1;" parent="mui6yo1SyYNMotn6UMkl-0" vertex="1">
          <mxGeometry y="120" width="90" height="30" as="geometry" />
        </mxCell>
        <mxCell id="mui6yo1SyYNMotn6UMkl-4" value="Quantity" style="text;strokeColor=none;fillColor=none;align=left;verticalAlign=middle;spacingLeft=4;spacingRight=4;overflow=hidden;points=[[0,0.5],[1,0.5]];portConstraint=eastwest;rotatable=0;whiteSpace=wrap;html=1;" parent="mui6yo1SyYNMotn6UMkl-0" vertex="1">
          <mxGeometry y="150" width="90" height="30" as="geometry" />
        </mxCell>
        <mxCell id="mui6yo1SyYNMotn6UMkl-6" value="&lt;b&gt;ing_rec&lt;/b&gt;" style="swimlane;fontStyle=0;childLayout=stackLayout;horizontal=1;startSize=30;horizontalStack=0;resizeParent=1;resizeParentMax=0;resizeLast=0;collapsible=1;marginBottom=0;whiteSpace=wrap;html=1;" parent="WIyWlLk6GJQsqaUBKTNV-1" vertex="1">
          <mxGeometry x="-460" y="-310" width="140" height="210" as="geometry" />
        </mxCell>
        <mxCell id="mui6yo1SyYNMotn6UMkl-12" value="&lt;u&gt;Ing_id&lt;/u&gt;" style="text;strokeColor=none;fillColor=none;align=left;verticalAlign=middle;spacingLeft=4;spacingRight=4;overflow=hidden;points=[[0,0.5],[1,0.5]];portConstraint=eastwest;rotatable=0;whiteSpace=wrap;html=1;" parent="mui6yo1SyYNMotn6UMkl-6" vertex="1">
          <mxGeometry y="30" width="140" height="30" as="geometry" />
        </mxCell>
        <mxCell id="mui6yo1SyYNMotn6UMkl-13" value="&lt;u&gt;Rec_id&lt;/u&gt;" style="text;strokeColor=none;fillColor=none;align=left;verticalAlign=middle;spacingLeft=4;spacingRight=4;overflow=hidden;points=[[0,0.5],[1,0.5]];portConstraint=eastwest;rotatable=0;whiteSpace=wrap;html=1;" parent="mui6yo1SyYNMotn6UMkl-6" vertex="1">
          <mxGeometry y="60" width="140" height="30" as="geometry" />
        </mxCell>
        <mxCell id="mui6yo1SyYNMotn6UMkl-7" value="Calories" style="text;strokeColor=none;fillColor=none;align=left;verticalAlign=middle;spacingLeft=4;spacingRight=4;overflow=hidden;points=[[0,0.5],[1,0.5]];portConstraint=eastwest;rotatable=0;whiteSpace=wrap;html=1;" parent="mui6yo1SyYNMotn6UMkl-6" vertex="1">
          <mxGeometry y="90" width="140" height="30" as="geometry" />
        </mxCell>
        <mxCell id="mui6yo1SyYNMotn6UMkl-8" value="Fat" style="text;strokeColor=none;fillColor=none;align=left;verticalAlign=middle;spacingLeft=4;spacingRight=4;overflow=hidden;points=[[0,0.5],[1,0.5]];portConstraint=eastwest;rotatable=0;whiteSpace=wrap;html=1;" parent="mui6yo1SyYNMotn6UMkl-6" vertex="1">
          <mxGeometry y="120" width="140" height="30" as="geometry" />
        </mxCell>
        <mxCell id="mui6yo1SyYNMotn6UMkl-9" value="Protein" style="text;strokeColor=none;fillColor=none;align=left;verticalAlign=middle;spacingLeft=4;spacingRight=4;overflow=hidden;points=[[0,0.5],[1,0.5]];portConstraint=eastwest;rotatable=0;whiteSpace=wrap;html=1;" parent="mui6yo1SyYNMotn6UMkl-6" vertex="1">
          <mxGeometry y="150" width="140" height="30" as="geometry" />
        </mxCell>
        <mxCell id="mui6yo1SyYNMotn6UMkl-11" value="Carbs" style="text;strokeColor=none;fillColor=none;align=left;verticalAlign=middle;spacingLeft=4;spacingRight=4;overflow=hidden;points=[[0,0.5],[1,0.5]];portConstraint=eastwest;rotatable=0;whiteSpace=wrap;html=1;" parent="mui6yo1SyYNMotn6UMkl-6" vertex="1">
          <mxGeometry y="180" width="140" height="30" as="geometry" />
        </mxCell>
        <mxCell id="mui6yo1SyYNMotn6UMkl-15" style="edgeStyle=elbowEdgeStyle;rounded=0;orthogonalLoop=1;jettySize=auto;html=1;exitX=1;exitY=0.5;exitDx=0;exitDy=0;entryX=0.004;entryY=0.157;entryDx=0;entryDy=0;entryPerimeter=0;" parent="WIyWlLk6GJQsqaUBKTNV-1" source="mui6yo1SyYNMotn6UMkl-13" target="GgVH_stJGBZSjANrIJAW-162" edge="1">
          <mxGeometry relative="1" as="geometry">
            <mxPoint x="-251.24000000000024" y="-250.46000000000004" as="targetPoint" />
          </mxGeometry>
        </mxCell>
        <mxCell id="mui6yo1SyYNMotn6UMkl-16" style="edgeStyle=elbowEdgeStyle;rounded=0;orthogonalLoop=1;jettySize=auto;html=1;exitX=0;exitY=0.5;exitDx=0;exitDy=0;entryX=1;entryY=0.5;entryDx=0;entryDy=0;" parent="WIyWlLk6GJQsqaUBKTNV-1" source="mui6yo1SyYNMotn6UMkl-12" target="mui6yo1SyYNMotn6UMkl-3" edge="1">
          <mxGeometry relative="1" as="geometry">
            <mxPoint x="-480" y="-70" as="targetPoint" />
            <Array as="points">
              <mxPoint x="-470" y="-170" />
            </Array>
          </mxGeometry>
        </mxCell>
        <mxCell id="mui6yo1SyYNMotn6UMkl-40" style="edgeStyle=elbowEdgeStyle;rounded=0;orthogonalLoop=1;jettySize=auto;html=1;entryX=0.001;entryY=0.107;entryDx=0;entryDy=0;entryPerimeter=0;" parent="WIyWlLk6GJQsqaUBKTNV-1" target="GgVH_stJGBZSjANrIJAW-192" edge="1">
          <mxGeometry relative="1" as="geometry">
            <mxPoint x="-360" y="10" as="sourcePoint" />
            <mxPoint x="140" y="128.75" as="targetPoint" />
            <Array as="points">
              <mxPoint x="-320" y="113.75" />
            </Array>
          </mxGeometry>
        </mxCell>
        <mxCell id="mui6yo1SyYNMotn6UMkl-20" value="img_ing" style="swimlane;whiteSpace=wrap;html=1;startSize=23;" parent="WIyWlLk6GJQsqaUBKTNV-1" vertex="1">
          <mxGeometry x="-460" y="-50" width="100" height="90" as="geometry" />
        </mxCell>
        <mxCell id="mui6yo1SyYNMotn6UMkl-21" value="&lt;u&gt;Ing_id&lt;/u&gt;&lt;div&gt;&lt;u&gt;Image_d&lt;/u&gt;&lt;/div&gt;" style="text;html=1;align=center;verticalAlign=middle;resizable=0;points=[];autosize=1;strokeColor=none;fillColor=none;" parent="mui6yo1SyYNMotn6UMkl-20" vertex="1">
          <mxGeometry x="10" y="33" width="70" height="40" as="geometry" />
        </mxCell>
        <mxCell id="mui6yo1SyYNMotn6UMkl-22" style="edgeStyle=elbowEdgeStyle;rounded=0;orthogonalLoop=1;jettySize=auto;html=1;exitX=0;exitY=0.5;exitDx=0;exitDy=0;entryX=1;entryY=0.5;entryDx=0;entryDy=0;" parent="WIyWlLk6GJQsqaUBKTNV-1" source="mui6yo1SyYNMotn6UMkl-20" target="mui6yo1SyYNMotn6UMkl-1" edge="1">
          <mxGeometry relative="1" as="geometry">
            <mxPoint x="-460" y="-30" as="targetPoint" />
          </mxGeometry>
        </mxCell>
        <mxCell id="mui6yo1SyYNMotn6UMkl-24" value="&lt;b&gt;Steps&lt;/b&gt;" style="swimlane;fontStyle=0;childLayout=stackLayout;horizontal=1;startSize=30;horizontalStack=0;resizeParent=1;resizeParentMax=0;resizeLast=0;collapsible=1;marginBottom=0;whiteSpace=wrap;html=1;" parent="WIyWlLk6GJQsqaUBKTNV-1" vertex="1">
          <mxGeometry x="-490" y="225" width="140" height="180" as="geometry" />
        </mxCell>
        <mxCell id="mui6yo1SyYNMotn6UMkl-25" value="&lt;u&gt;Step_id&lt;/u&gt;" style="text;strokeColor=none;fillColor=none;align=left;verticalAlign=middle;spacingLeft=4;spacingRight=4;overflow=hidden;points=[[0,0.5],[1,0.5]];portConstraint=eastwest;rotatable=0;whiteSpace=wrap;html=1;" parent="mui6yo1SyYNMotn6UMkl-24" vertex="1">
          <mxGeometry y="30" width="140" height="30" as="geometry" />
        </mxCell>
        <mxCell id="mui6yo1SyYNMotn6UMkl-26" value="Image_id" style="text;strokeColor=none;fillColor=none;align=left;verticalAlign=middle;spacingLeft=4;spacingRight=4;overflow=hidden;points=[[0,0.5],[1,0.5]];portConstraint=eastwest;rotatable=0;whiteSpace=wrap;html=1;" parent="mui6yo1SyYNMotn6UMkl-24" vertex="1">
          <mxGeometry y="60" width="140" height="30" as="geometry" />
        </mxCell>
        <mxCell id="mui6yo1SyYNMotn6UMkl-28" value="Time" style="text;strokeColor=none;fillColor=none;align=left;verticalAlign=middle;spacingLeft=4;spacingRight=4;overflow=hidden;points=[[0,0.5],[1,0.5]];portConstraint=eastwest;rotatable=0;whiteSpace=wrap;html=1;" parent="mui6yo1SyYNMotn6UMkl-24" vertex="1">
          <mxGeometry y="90" width="140" height="30" as="geometry" />
        </mxCell>
        <mxCell id="mui6yo1SyYNMotn6UMkl-27" value="Description" style="text;strokeColor=none;fillColor=none;align=left;verticalAlign=middle;spacingLeft=4;spacingRight=4;overflow=hidden;points=[[0,0.5],[1,0.5]];portConstraint=eastwest;rotatable=0;whiteSpace=wrap;html=1;" parent="mui6yo1SyYNMotn6UMkl-24" vertex="1">
          <mxGeometry y="120" width="140" height="30" as="geometry" />
        </mxCell>
        <mxCell id="mui6yo1SyYNMotn6UMkl-29" value="Preparation_Time" style="text;strokeColor=none;fillColor=none;align=left;verticalAlign=middle;spacingLeft=4;spacingRight=4;overflow=hidden;points=[[0,0.5],[1,0.5]];portConstraint=eastwest;rotatable=0;whiteSpace=wrap;html=1;" parent="mui6yo1SyYNMotn6UMkl-24" vertex="1">
          <mxGeometry y="150" width="140" height="30" as="geometry" />
        </mxCell>
        <mxCell id="mui6yo1SyYNMotn6UMkl-31" style="edgeStyle=elbowEdgeStyle;rounded=0;orthogonalLoop=1;jettySize=auto;html=1;exitX=1;exitY=0.5;exitDx=0;exitDy=0;entryX=-0.001;entryY=0.76;entryDx=0;entryDy=0;entryPerimeter=0;" parent="WIyWlLk6GJQsqaUBKTNV-1" source="mui6yo1SyYNMotn6UMkl-26" target="GgVH_stJGBZSjANrIJAW-192" edge="1">
          <mxGeometry relative="1" as="geometry">
            <mxPoint x="140" y="140" as="targetPoint" />
            <Array as="points">
              <mxPoint x="-230" y="220" />
            </Array>
          </mxGeometry>
        </mxCell>
        <mxCell id="mui6yo1SyYNMotn6UMkl-32" value="&lt;b&gt;step_rec&lt;/b&gt;" style="swimlane;fontStyle=0;childLayout=stackLayout;horizontal=1;startSize=30;horizontalStack=0;resizeParent=1;resizeParentMax=0;resizeLast=0;collapsible=1;marginBottom=0;whiteSpace=wrap;html=1;" parent="WIyWlLk6GJQsqaUBKTNV-1" vertex="1">
          <mxGeometry x="-480" y="100" width="140" height="90" as="geometry" />
        </mxCell>
        <mxCell id="mui6yo1SyYNMotn6UMkl-33" value="&lt;u&gt;Rec_id&lt;/u&gt;" style="text;strokeColor=none;fillColor=none;align=left;verticalAlign=middle;spacingLeft=4;spacingRight=4;overflow=hidden;points=[[0,0.5],[1,0.5]];portConstraint=eastwest;rotatable=0;whiteSpace=wrap;html=1;" parent="mui6yo1SyYNMotn6UMkl-32" vertex="1">
          <mxGeometry y="30" width="140" height="30" as="geometry" />
        </mxCell>
        <mxCell id="mui6yo1SyYNMotn6UMkl-34" value="&lt;u&gt;Step_id&lt;/u&gt;" style="text;strokeColor=none;fillColor=none;align=left;verticalAlign=middle;spacingLeft=4;spacingRight=4;overflow=hidden;points=[[0,0.5],[1,0.5]];portConstraint=eastwest;rotatable=0;whiteSpace=wrap;html=1;" parent="mui6yo1SyYNMotn6UMkl-32" vertex="1">
          <mxGeometry y="60" width="140" height="30" as="geometry" />
        </mxCell>
        <mxCell id="mui6yo1SyYNMotn6UMkl-42" style="edgeStyle=elbowEdgeStyle;rounded=0;orthogonalLoop=1;jettySize=auto;html=1;exitX=1;exitY=0.5;exitDx=0;exitDy=0;entryX=0;entryY=0.5;entryDx=0;entryDy=0;" parent="WIyWlLk6GJQsqaUBKTNV-1" source="mui6yo1SyYNMotn6UMkl-33" target="GgVH_stJGBZSjANrIJAW-162" edge="1">
          <mxGeometry relative="1" as="geometry">
            <mxPoint x="-254.6199999999999" y="-251.7800000000002" as="targetPoint" />
          </mxGeometry>
        </mxCell>
        <mxCell id="mui6yo1SyYNMotn6UMkl-43" style="edgeStyle=elbowEdgeStyle;rounded=0;orthogonalLoop=1;jettySize=auto;html=1;exitX=1;exitY=0.5;exitDx=0;exitDy=0;entryX=1;entryY=0.5;entryDx=0;entryDy=0;" parent="WIyWlLk6GJQsqaUBKTNV-1" source="mui6yo1SyYNMotn6UMkl-34" target="mui6yo1SyYNMotn6UMkl-25" edge="1">
          <mxGeometry relative="1" as="geometry">
            <Array as="points">
              <mxPoint x="-320" y="230" />
            </Array>
          </mxGeometry>
        </mxCell>
        <mxCell id="mui6yo1SyYNMotn6UMkl-44" value="&lt;b&gt;Food_Groups&lt;/b&gt;" style="swimlane;fontStyle=0;childLayout=stackLayout;horizontal=1;startSize=30;horizontalStack=0;resizeParent=1;resizeParentMax=0;resizeLast=0;collapsible=1;marginBottom=0;whiteSpace=wrap;html=1;" parent="WIyWlLk6GJQsqaUBKTNV-1" vertex="1">
          <mxGeometry x="-320" y="490" width="140" height="150" as="geometry" />
        </mxCell>
        <mxCell id="mui6yo1SyYNMotn6UMkl-45" value="&lt;u&gt;Food_Gr_id&lt;/u&gt;" style="text;strokeColor=none;fillColor=none;align=left;verticalAlign=middle;spacingLeft=4;spacingRight=4;overflow=hidden;points=[[0,0.5],[1,0.5]];portConstraint=eastwest;rotatable=0;whiteSpace=wrap;html=1;" parent="mui6yo1SyYNMotn6UMkl-44" vertex="1">
          <mxGeometry y="30" width="140" height="30" as="geometry" />
        </mxCell>
        <mxCell id="mui6yo1SyYNMotn6UMkl-46" value="Image_id" style="text;strokeColor=none;fillColor=none;align=left;verticalAlign=middle;spacingLeft=4;spacingRight=4;overflow=hidden;points=[[0,0.5],[1,0.5]];portConstraint=eastwest;rotatable=0;whiteSpace=wrap;html=1;" parent="mui6yo1SyYNMotn6UMkl-44" vertex="1">
          <mxGeometry y="60" width="140" height="30" as="geometry" />
        </mxCell>
        <mxCell id="mui6yo1SyYNMotn6UMkl-47" value="Name" style="text;strokeColor=none;fillColor=none;align=left;verticalAlign=middle;spacingLeft=4;spacingRight=4;overflow=hidden;points=[[0,0.5],[1,0.5]];portConstraint=eastwest;rotatable=0;whiteSpace=wrap;html=1;" parent="mui6yo1SyYNMotn6UMkl-44" vertex="1">
          <mxGeometry y="90" width="140" height="30" as="geometry" />
        </mxCell>
        <mxCell id="mui6yo1SyYNMotn6UMkl-48" value="Description" style="text;strokeColor=none;fillColor=none;align=left;verticalAlign=middle;spacingLeft=4;spacingRight=4;overflow=hidden;points=[[0,0.5],[1,0.5]];portConstraint=eastwest;rotatable=0;whiteSpace=wrap;html=1;" parent="mui6yo1SyYNMotn6UMkl-44" vertex="1">
          <mxGeometry y="120" width="140" height="30" as="geometry" />
        </mxCell>
        <mxCell id="mui6yo1SyYNMotn6UMkl-52" value="&lt;b&gt;img_fgr&lt;/b&gt;" style="swimlane;fontStyle=0;childLayout=stackLayout;horizontal=1;startSize=30;horizontalStack=0;resizeParent=1;resizeParentMax=0;resizeLast=0;collapsible=1;marginBottom=0;whiteSpace=wrap;html=1;" parent="WIyWlLk6GJQsqaUBKTNV-1" vertex="1">
          <mxGeometry x="-140" y="480" width="140" height="90" as="geometry" />
        </mxCell>
        <mxCell id="mui6yo1SyYNMotn6UMkl-53" value="&lt;u&gt;Food_Gr_id&lt;/u&gt;" style="text;strokeColor=none;fillColor=none;align=left;verticalAlign=middle;spacingLeft=4;spacingRight=4;overflow=hidden;points=[[0,0.5],[1,0.5]];portConstraint=eastwest;rotatable=0;whiteSpace=wrap;html=1;" parent="mui6yo1SyYNMotn6UMkl-52" vertex="1">
          <mxGeometry y="30" width="140" height="30" as="geometry" />
        </mxCell>
        <mxCell id="mui6yo1SyYNMotn6UMkl-54" value="&lt;u&gt;Image_id&lt;/u&gt;" style="text;strokeColor=none;fillColor=none;align=left;verticalAlign=middle;spacingLeft=4;spacingRight=4;overflow=hidden;points=[[0,0.5],[1,0.5]];portConstraint=eastwest;rotatable=0;whiteSpace=wrap;html=1;" parent="mui6yo1SyYNMotn6UMkl-52" vertex="1">
          <mxGeometry y="60" width="140" height="30" as="geometry" />
        </mxCell>
        <mxCell id="mui6yo1SyYNMotn6UMkl-58" style="edgeStyle=elbowEdgeStyle;rounded=0;orthogonalLoop=1;jettySize=auto;html=1;exitX=0;exitY=0.5;exitDx=0;exitDy=0;entryX=1;entryY=0.5;entryDx=0;entryDy=0;" parent="WIyWlLk6GJQsqaUBKTNV-1" source="mui6yo1SyYNMotn6UMkl-53" target="mui6yo1SyYNMotn6UMkl-45" edge="1">
          <mxGeometry relative="1" as="geometry" />
        </mxCell>
        <mxCell id="mui6yo1SyYNMotn6UMkl-59" value="&lt;b&gt;ing_fgr&lt;/b&gt;" style="swimlane;fontStyle=0;childLayout=stackLayout;horizontal=1;startSize=30;horizontalStack=0;resizeParent=1;resizeParentMax=0;resizeLast=0;collapsible=1;marginBottom=0;whiteSpace=wrap;html=1;perimeterSpacing=1;" parent="WIyWlLk6GJQsqaUBKTNV-1" vertex="1">
          <mxGeometry x="-551" y="470" width="140" height="90" as="geometry" />
        </mxCell>
        <mxCell id="mui6yo1SyYNMotn6UMkl-60" value="&lt;u&gt;Food_Gr_id&lt;/u&gt;" style="text;strokeColor=none;fillColor=none;align=left;verticalAlign=middle;spacingLeft=4;spacingRight=4;overflow=hidden;points=[[0,0.5],[1,0.5]];portConstraint=eastwest;rotatable=0;whiteSpace=wrap;html=1;" parent="mui6yo1SyYNMotn6UMkl-59" vertex="1">
          <mxGeometry y="30" width="140" height="30" as="geometry" />
        </mxCell>
        <mxCell id="mui6yo1SyYNMotn6UMkl-61" value="&lt;u&gt;Ing_id&lt;/u&gt;" style="text;strokeColor=none;fillColor=none;align=left;verticalAlign=middle;spacingLeft=4;spacingRight=4;overflow=hidden;points=[[0,0.5],[1,0.5]];portConstraint=eastwest;rotatable=0;whiteSpace=wrap;html=1;" parent="mui6yo1SyYNMotn6UMkl-59" vertex="1">
          <mxGeometry y="60" width="140" height="30" as="geometry" />
        </mxCell>
        <mxCell id="mui6yo1SyYNMotn6UMkl-62" style="edgeStyle=elbowEdgeStyle;rounded=0;orthogonalLoop=1;jettySize=auto;html=1;exitX=1;exitY=0.5;exitDx=0;exitDy=0;entryX=0;entryY=0.5;entryDx=0;entryDy=0;" parent="WIyWlLk6GJQsqaUBKTNV-1" source="mui6yo1SyYNMotn6UMkl-60" target="mui6yo1SyYNMotn6UMkl-45" edge="1">
          <mxGeometry relative="1" as="geometry" />
        </mxCell>
        <mxCell id="mui6yo1SyYNMotn6UMkl-63" style="edgeStyle=elbowEdgeStyle;rounded=0;orthogonalLoop=1;jettySize=auto;html=1;exitX=0;exitY=0.5;exitDx=0;exitDy=0;entryX=0;entryY=0.5;entryDx=0;entryDy=0;" parent="WIyWlLk6GJQsqaUBKTNV-1" edge="1">
          <mxGeometry relative="1" as="geometry">
            <Array as="points">
              <mxPoint x="-630" y="189" />
            </Array>
            <mxPoint x="-550.9999999999998" y="544.0000000000005" as="sourcePoint" />
            <mxPoint x="-600" y="-164" as="targetPoint" />
          </mxGeometry>
        </mxCell>
        <mxCell id="GgVH_stJGBZSjANrIJAW-139" value="&lt;b&gt;Chef&lt;/b&gt;" style="swimlane;fontStyle=0;childLayout=stackLayout;horizontal=1;startSize=30;horizontalStack=0;resizeParent=1;resizeParentMax=0;resizeLast=0;collapsible=1;marginBottom=0;whiteSpace=wrap;html=1;" parent="WIyWlLk6GJQsqaUBKTNV-1" vertex="1">
          <mxGeometry x="80" y="470" width="140" height="300" as="geometry" />
        </mxCell>
        <mxCell id="GgVH_stJGBZSjANrIJAW-140" value="&lt;u style=&quot;text-align: center; text-wrap: nowrap;&quot;&gt;Chef_id&lt;/u&gt;" style="text;strokeColor=none;fillColor=none;align=left;verticalAlign=middle;spacingLeft=4;spacingRight=4;overflow=hidden;points=[[0,0.5],[1,0.5]];portConstraint=eastwest;rotatable=0;whiteSpace=wrap;html=1;" parent="GgVH_stJGBZSjANrIJAW-139" vertex="1">
          <mxGeometry y="30" width="140" height="30" as="geometry" />
        </mxCell>
        <mxCell id="GgVH_stJGBZSjANrIJAW-141" value="&lt;span style=&quot;text-align: center; text-wrap: nowrap;&quot;&gt;Image_id&lt;/span&gt;" style="text;strokeColor=none;fillColor=none;align=left;verticalAlign=middle;spacingLeft=4;spacingRight=4;overflow=hidden;points=[[0,0.5],[1,0.5]];portConstraint=eastwest;rotatable=0;whiteSpace=wrap;html=1;" parent="GgVH_stJGBZSjANrIJAW-139" vertex="1">
          <mxGeometry y="60" width="140" height="30" as="geometry" />
        </mxCell>
        <mxCell id="GgVH_stJGBZSjANrIJAW-142" value="&lt;span style=&quot;text-align: center; text-wrap: nowrap;&quot;&gt;Name&lt;/span&gt;" style="text;strokeColor=none;fillColor=none;align=left;verticalAlign=middle;spacingLeft=4;spacingRight=4;overflow=hidden;points=[[0,0.5],[1,0.5]];portConstraint=eastwest;rotatable=0;whiteSpace=wrap;html=1;" parent="GgVH_stJGBZSjANrIJAW-139" vertex="1">
          <mxGeometry y="90" width="140" height="30" as="geometry" />
        </mxCell>
        <mxCell id="GgVH_stJGBZSjANrIJAW-143" value="&lt;span style=&quot;text-align: center; text-wrap: nowrap;&quot;&gt;Surname&lt;/span&gt;" style="text;strokeColor=none;fillColor=none;align=left;verticalAlign=middle;spacingLeft=4;spacingRight=4;overflow=hidden;points=[[0,0.5],[1,0.5]];portConstraint=eastwest;rotatable=0;whiteSpace=wrap;html=1;" parent="GgVH_stJGBZSjANrIJAW-139" vertex="1">
          <mxGeometry y="120" width="140" height="30" as="geometry" />
        </mxCell>
        <mxCell id="GgVH_stJGBZSjANrIJAW-144" value="&lt;span style=&quot;text-align: center; text-wrap: nowrap;&quot;&gt;Phone_number&lt;/span&gt;" style="text;strokeColor=none;fillColor=none;align=left;verticalAlign=middle;spacingLeft=4;spacingRight=4;overflow=hidden;points=[[0,0.5],[1,0.5]];portConstraint=eastwest;rotatable=0;whiteSpace=wrap;html=1;" parent="GgVH_stJGBZSjANrIJAW-139" vertex="1">
          <mxGeometry y="150" width="140" height="30" as="geometry" />
        </mxCell>
        <mxCell id="GgVH_stJGBZSjANrIJAW-145" value="&lt;span style=&quot;text-align: center; text-wrap: nowrap;&quot;&gt;Birth_date&lt;/span&gt;" style="text;strokeColor=none;fillColor=none;align=left;verticalAlign=middle;spacingLeft=4;spacingRight=4;overflow=hidden;points=[[0,0.5],[1,0.5]];portConstraint=eastwest;rotatable=0;whiteSpace=wrap;html=1;" parent="GgVH_stJGBZSjANrIJAW-139" vertex="1">
          <mxGeometry y="180" width="140" height="30" as="geometry" />
        </mxCell>
        <mxCell id="GgVH_stJGBZSjANrIJAW-146" value="&lt;div style=&quot;text-align: center; text-wrap: nowrap;&quot;&gt;Age()&lt;/div&gt;&lt;div&gt;&lt;br&gt;&lt;/div&gt;" style="text;strokeColor=none;fillColor=none;align=left;verticalAlign=middle;spacingLeft=4;spacingRight=4;overflow=hidden;points=[[0,0.5],[1,0.5]];portConstraint=eastwest;rotatable=0;whiteSpace=wrap;html=1;" parent="GgVH_stJGBZSjANrIJAW-139" vertex="1">
          <mxGeometry y="210" width="140" height="30" as="geometry" />
        </mxCell>
        <mxCell id="GgVH_stJGBZSjANrIJAW-147" value="&lt;span style=&quot;text-align: center; text-wrap: nowrap;&quot;&gt;Experience&lt;/span&gt;" style="text;strokeColor=none;fillColor=none;align=left;verticalAlign=middle;spacingLeft=4;spacingRight=4;overflow=hidden;points=[[0,0.5],[1,0.5]];portConstraint=eastwest;rotatable=0;whiteSpace=wrap;html=1;" parent="GgVH_stJGBZSjANrIJAW-139" vertex="1">
          <mxGeometry y="240" width="140" height="30" as="geometry" />
        </mxCell>
        <mxCell id="GgVH_stJGBZSjANrIJAW-148" value="&lt;span style=&quot;text-align: center; text-wrap: nowrap;&quot;&gt;Job_title&lt;/span&gt;" style="text;strokeColor=none;fillColor=none;align=left;verticalAlign=middle;spacingLeft=4;spacingRight=4;overflow=hidden;points=[[0,0.5],[1,0.5]];portConstraint=eastwest;rotatable=0;whiteSpace=wrap;html=1;" parent="GgVH_stJGBZSjANrIJAW-139" vertex="1">
          <mxGeometry y="270" width="140" height="30" as="geometry" />
        </mxCell>
        <mxCell id="GgVH_stJGBZSjANrIJAW-156" value="&lt;span style=&quot;font-weight: 700;&quot;&gt;rec_equ&lt;/span&gt;" style="swimlane;fontStyle=0;childLayout=stackLayout;horizontal=1;startSize=30;horizontalStack=0;resizeParent=1;resizeParentMax=0;resizeLast=0;collapsible=1;marginBottom=0;whiteSpace=wrap;html=1;" parent="WIyWlLk6GJQsqaUBKTNV-1" vertex="1">
          <mxGeometry x="170" y="-350" width="140" height="90" as="geometry" />
        </mxCell>
        <mxCell id="GgVH_stJGBZSjANrIJAW-157" value="&lt;u style=&quot;text-align: center; text-wrap: nowrap;&quot;&gt;Equ_id&lt;/u&gt;" style="text;strokeColor=none;fillColor=none;align=left;verticalAlign=middle;spacingLeft=4;spacingRight=4;overflow=hidden;points=[[0,0.5],[1,0.5]];portConstraint=eastwest;rotatable=0;whiteSpace=wrap;html=1;" parent="GgVH_stJGBZSjANrIJAW-156" vertex="1">
          <mxGeometry y="30" width="140" height="30" as="geometry" />
        </mxCell>
        <mxCell id="GgVH_stJGBZSjANrIJAW-158" value="&lt;u style=&quot;text-align: center; text-wrap: nowrap;&quot;&gt;Rec_id&lt;/u&gt;" style="text;strokeColor=none;fillColor=none;align=left;verticalAlign=middle;spacingLeft=4;spacingRight=4;overflow=hidden;points=[[0,0.5],[1,0.5]];portConstraint=eastwest;rotatable=0;whiteSpace=wrap;html=1;" parent="GgVH_stJGBZSjANrIJAW-156" vertex="1">
          <mxGeometry y="60" width="140" height="30" as="geometry" />
        </mxCell>
        <mxCell id="GgVH_stJGBZSjANrIJAW-161" value="&lt;b&gt;Recipes&lt;/b&gt;" style="swimlane;fontStyle=0;childLayout=stackLayout;horizontal=1;startSize=30;horizontalStack=0;resizeParent=1;resizeParentMax=0;resizeLast=0;collapsible=1;marginBottom=0;whiteSpace=wrap;html=1;" parent="WIyWlLk6GJQsqaUBKTNV-1" vertex="1">
          <mxGeometry x="-250" y="-540" width="140" height="660" as="geometry" />
        </mxCell>
        <mxCell id="GgVH_stJGBZSjANrIJAW-162" value="&lt;u style=&quot;text-align: center; text-wrap: nowrap;&quot;&gt;Rec_id&lt;/u&gt;" style="text;strokeColor=none;fillColor=none;align=left;verticalAlign=middle;spacingLeft=4;spacingRight=4;overflow=hidden;points=[[0,0.5],[1,0.5]];portConstraint=eastwest;rotatable=0;whiteSpace=wrap;html=1;" parent="GgVH_stJGBZSjANrIJAW-161" vertex="1">
          <mxGeometry y="30" width="140" height="30" as="geometry" />
        </mxCell>
        <mxCell id="GgVH_stJGBZSjANrIJAW-163" value="&lt;span style=&quot;text-align: center; text-wrap: nowrap;&quot;&gt;Image_id&lt;/span&gt;" style="text;strokeColor=none;fillColor=none;align=left;verticalAlign=middle;spacingLeft=4;spacingRight=4;overflow=hidden;points=[[0,0.5],[1,0.5]];portConstraint=eastwest;rotatable=0;whiteSpace=wrap;html=1;" parent="GgVH_stJGBZSjANrIJAW-161" vertex="1">
          <mxGeometry y="60" width="140" height="30" as="geometry" />
        </mxCell>
        <mxCell id="GgVH_stJGBZSjANrIJAW-164" value="&lt;span style=&quot;text-align: center; text-wrap: nowrap;&quot;&gt;Equipment_id&lt;/span&gt;" style="text;strokeColor=none;fillColor=none;align=left;verticalAlign=middle;spacingLeft=4;spacingRight=4;overflow=hidden;points=[[0,0.5],[1,0.5]];portConstraint=eastwest;rotatable=0;whiteSpace=wrap;html=1;" parent="GgVH_stJGBZSjANrIJAW-161" vertex="1">
          <mxGeometry y="90" width="140" height="30" as="geometry" />
        </mxCell>
        <mxCell id="GgVH_stJGBZSjANrIJAW-165" value="&lt;span style=&quot;text-align: center; text-wrap: nowrap;&quot;&gt;Ingredients&lt;/span&gt;" style="text;strokeColor=none;fillColor=none;align=left;verticalAlign=middle;spacingLeft=4;spacingRight=4;overflow=hidden;points=[[0,0.5],[1,0.5]];portConstraint=eastwest;rotatable=0;whiteSpace=wrap;html=1;" parent="GgVH_stJGBZSjANrIJAW-161" vertex="1">
          <mxGeometry y="120" width="140" height="30" as="geometry" />
        </mxCell>
        <mxCell id="GgVH_stJGBZSjANrIJAW-166" value="&lt;span style=&quot;text-align: center; text-wrap: nowrap;&quot;&gt;Basic_ingredient&lt;/span&gt;" style="text;strokeColor=none;fillColor=none;align=left;verticalAlign=middle;spacingLeft=4;spacingRight=4;overflow=hidden;points=[[0,0.5],[1,0.5]];portConstraint=eastwest;rotatable=0;whiteSpace=wrap;html=1;" parent="GgVH_stJGBZSjANrIJAW-161" vertex="1">
          <mxGeometry y="150" width="140" height="30" as="geometry" />
        </mxCell>
        <mxCell id="GgVH_stJGBZSjANrIJAW-167" value="&lt;span style=&quot;text-align: center; text-wrap: nowrap;&quot;&gt;Type&lt;/span&gt;" style="text;strokeColor=none;fillColor=none;align=left;verticalAlign=middle;spacingLeft=4;spacingRight=4;overflow=hidden;points=[[0,0.5],[1,0.5]];portConstraint=eastwest;rotatable=0;whiteSpace=wrap;html=1;" parent="GgVH_stJGBZSjANrIJAW-161" vertex="1">
          <mxGeometry y="180" width="140" height="30" as="geometry" />
        </mxCell>
        <mxCell id="GgVH_stJGBZSjANrIJAW-168" value="&lt;span style=&quot;text-align: center; text-wrap: nowrap;&quot;&gt;Cuisine&lt;/span&gt;" style="text;strokeColor=none;fillColor=none;align=left;verticalAlign=middle;spacingLeft=4;spacingRight=4;overflow=hidden;points=[[0,0.5],[1,0.5]];portConstraint=eastwest;rotatable=0;whiteSpace=wrap;html=1;" parent="GgVH_stJGBZSjANrIJAW-161" vertex="1">
          <mxGeometry y="210" width="140" height="30" as="geometry" />
        </mxCell>
        <mxCell id="GgVH_stJGBZSjANrIJAW-169" value="&lt;span style=&quot;text-align: center; text-wrap: nowrap;&quot;&gt;Difficulty&lt;/span&gt;" style="text;strokeColor=none;fillColor=none;align=left;verticalAlign=middle;spacingLeft=4;spacingRight=4;overflow=hidden;points=[[0,0.5],[1,0.5]];portConstraint=eastwest;rotatable=0;whiteSpace=wrap;html=1;" parent="GgVH_stJGBZSjANrIJAW-161" vertex="1">
          <mxGeometry y="240" width="140" height="30" as="geometry" />
        </mxCell>
        <mxCell id="GgVH_stJGBZSjANrIJAW-170" value="&lt;span style=&quot;text-align: center; text-wrap: nowrap;&quot;&gt;Name&lt;/span&gt;" style="text;strokeColor=none;fillColor=none;align=left;verticalAlign=middle;spacingLeft=4;spacingRight=4;overflow=hidden;points=[[0,0.5],[1,0.5]];portConstraint=eastwest;rotatable=0;whiteSpace=wrap;html=1;" parent="GgVH_stJGBZSjANrIJAW-161" vertex="1">
          <mxGeometry y="270" width="140" height="30" as="geometry" />
        </mxCell>
        <mxCell id="GgVH_stJGBZSjANrIJAW-171" value="&lt;span style=&quot;text-align: center; text-wrap: nowrap;&quot;&gt;{Meal Group}&lt;/span&gt;" style="text;strokeColor=none;fillColor=none;align=left;verticalAlign=middle;spacingLeft=4;spacingRight=4;overflow=hidden;points=[[0,0.5],[1,0.5]];portConstraint=eastwest;rotatable=0;whiteSpace=wrap;html=1;" parent="GgVH_stJGBZSjANrIJAW-161" vertex="1">
          <mxGeometry y="300" width="140" height="30" as="geometry" />
        </mxCell>
        <mxCell id="GgVH_stJGBZSjANrIJAW-172" value="&lt;div style=&quot;text-align: center; text-wrap: nowrap;&quot;&gt;{Additional Tags}&lt;/div&gt;&lt;div&gt;&lt;br&gt;&lt;/div&gt;" style="text;strokeColor=none;fillColor=none;align=left;verticalAlign=middle;spacingLeft=4;spacingRight=4;overflow=hidden;points=[[0,0.5],[1,0.5]];portConstraint=eastwest;rotatable=0;whiteSpace=wrap;html=1;" parent="GgVH_stJGBZSjANrIJAW-161" vertex="1">
          <mxGeometry y="330" width="140" height="30" as="geometry" />
        </mxCell>
        <mxCell id="GgVH_stJGBZSjANrIJAW-173" value="&lt;div style=&quot;text-align: center; text-wrap: nowrap;&quot;&gt;{Advice}&lt;/div&gt;&lt;div&gt;&lt;br&gt;&lt;/div&gt;" style="text;strokeColor=none;fillColor=none;align=left;verticalAlign=middle;spacingLeft=4;spacingRight=4;overflow=hidden;points=[[0,0.5],[1,0.5]];portConstraint=eastwest;rotatable=0;whiteSpace=wrap;html=1;" parent="GgVH_stJGBZSjANrIJAW-161" vertex="1">
          <mxGeometry y="360" width="140" height="30" as="geometry" />
        </mxCell>
        <mxCell id="GgVH_stJGBZSjANrIJAW-174" value="&lt;div style=&quot;text-align: center; text-wrap: nowrap;&quot;&gt;{Step_id}&lt;/div&gt;&lt;div&gt;&lt;br&gt;&lt;/div&gt;" style="text;strokeColor=none;fillColor=none;align=left;verticalAlign=middle;spacingLeft=4;spacingRight=4;overflow=hidden;points=[[0,0.5],[1,0.5]];portConstraint=eastwest;rotatable=0;whiteSpace=wrap;html=1;" parent="GgVH_stJGBZSjANrIJAW-161" vertex="1">
          <mxGeometry y="390" width="140" height="30" as="geometry" />
        </mxCell>
        <mxCell id="GgVH_stJGBZSjANrIJAW-175" value="&lt;span style=&quot;text-align: center; text-wrap: nowrap;&quot;&gt;Preparation_time()&lt;/span&gt;" style="text;strokeColor=none;fillColor=none;align=left;verticalAlign=middle;spacingLeft=4;spacingRight=4;overflow=hidden;points=[[0,0.5],[1,0.5]];portConstraint=eastwest;rotatable=0;whiteSpace=wrap;html=1;" parent="GgVH_stJGBZSjANrIJAW-161" vertex="1">
          <mxGeometry y="420" width="140" height="30" as="geometry" />
        </mxCell>
        <mxCell id="GgVH_stJGBZSjANrIJAW-176" value="&lt;span style=&quot;text-align: center; text-wrap: nowrap;&quot;&gt;Cooking_time()&lt;/span&gt;" style="text;strokeColor=none;fillColor=none;align=left;verticalAlign=middle;spacingLeft=4;spacingRight=4;overflow=hidden;points=[[0,0.5],[1,0.5]];portConstraint=eastwest;rotatable=0;whiteSpace=wrap;html=1;" parent="GgVH_stJGBZSjANrIJAW-161" vertex="1">
          <mxGeometry y="450" width="140" height="30" as="geometry" />
        </mxCell>
        <mxCell id="GgVH_stJGBZSjANrIJAW-177" value="&lt;div style=&quot;text-align: center; text-wrap: nowrap;&quot;&gt;Number of servings&lt;br&gt;&lt;/div&gt;" style="text;strokeColor=none;fillColor=none;align=left;verticalAlign=middle;spacingLeft=4;spacingRight=4;overflow=hidden;points=[[0,0.5],[1,0.5]];portConstraint=eastwest;rotatable=0;whiteSpace=wrap;html=1;" parent="GgVH_stJGBZSjANrIJAW-161" vertex="1">
          <mxGeometry y="480" width="140" height="30" as="geometry" />
        </mxCell>
        <mxCell id="GgVH_stJGBZSjANrIJAW-178" value="&lt;div style=&quot;text-wrap: nowrap;&quot;&gt;&lt;div&gt;Total_time()&lt;/div&gt;&lt;/div&gt;" style="text;strokeColor=none;fillColor=none;align=left;verticalAlign=middle;spacingLeft=4;spacingRight=4;overflow=hidden;points=[[0,0.5],[1,0.5]];portConstraint=eastwest;rotatable=0;whiteSpace=wrap;html=1;" parent="GgVH_stJGBZSjANrIJAW-161" vertex="1">
          <mxGeometry y="510" width="140" height="30" as="geometry" />
        </mxCell>
        <mxCell id="GgVH_stJGBZSjANrIJAW-179" value="&lt;div style=&quot;text-align: center; text-wrap: nowrap;&quot;&gt;Fat/serving()&lt;br&gt;&lt;/div&gt;" style="text;strokeColor=none;fillColor=none;align=left;verticalAlign=middle;spacingLeft=4;spacingRight=4;overflow=hidden;points=[[0,0.5],[1,0.5]];portConstraint=eastwest;rotatable=0;whiteSpace=wrap;html=1;" parent="GgVH_stJGBZSjANrIJAW-161" vertex="1">
          <mxGeometry y="540" width="140" height="30" as="geometry" />
        </mxCell>
        <mxCell id="GgVH_stJGBZSjANrIJAW-180" value="&lt;div style=&quot;text-align: center; text-wrap: nowrap;&quot;&gt;Protein/serving()&lt;br&gt;&lt;/div&gt;" style="text;strokeColor=none;fillColor=none;align=left;verticalAlign=middle;spacingLeft=4;spacingRight=4;overflow=hidden;points=[[0,0.5],[1,0.5]];portConstraint=eastwest;rotatable=0;whiteSpace=wrap;html=1;" parent="GgVH_stJGBZSjANrIJAW-161" vertex="1">
          <mxGeometry y="570" width="140" height="30" as="geometry" />
        </mxCell>
        <mxCell id="GgVH_stJGBZSjANrIJAW-181" value="&lt;div style=&quot;text-align: center; text-wrap: nowrap;&quot;&gt;Carbs/serving()&lt;br&gt;&lt;/div&gt;" style="text;strokeColor=none;fillColor=none;align=left;verticalAlign=middle;spacingLeft=4;spacingRight=4;overflow=hidden;points=[[0,0.5],[1,0.5]];portConstraint=eastwest;rotatable=0;whiteSpace=wrap;html=1;" parent="GgVH_stJGBZSjANrIJAW-161" vertex="1">
          <mxGeometry y="600" width="140" height="30" as="geometry" />
        </mxCell>
        <mxCell id="GgVH_stJGBZSjANrIJAW-182" value="&lt;div style=&quot;text-align: center; text-wrap: nowrap;&quot;&gt;Calories/serving()&lt;br&gt;&lt;/div&gt;" style="text;strokeColor=none;fillColor=none;align=left;verticalAlign=middle;spacingLeft=4;spacingRight=4;overflow=hidden;points=[[0,0.5],[1,0.5]];portConstraint=eastwest;rotatable=0;whiteSpace=wrap;html=1;" parent="GgVH_stJGBZSjANrIJAW-161" vertex="1">
          <mxGeometry y="630" width="140" height="30" as="geometry" />
        </mxCell>
        <mxCell id="GgVH_stJGBZSjANrIJAW-199" value="" style="edgeStyle=elbowEdgeStyle;rounded=0;orthogonalLoop=1;jettySize=auto;html=1;exitX=0;exitY=0.5;exitDx=0;exitDy=0;" parent="WIyWlLk6GJQsqaUBKTNV-1" source="GgVH_stJGBZSjANrIJAW-227" target="GgVH_stJGBZSjANrIJAW-191" edge="1">
          <mxGeometry relative="1" as="geometry">
            <mxPoint x="220" y="310" as="targetPoint" />
            <mxPoint x="270" y="27" as="sourcePoint" />
            <Array as="points">
              <mxPoint x="260" y="140" />
              <mxPoint x="260" y="140" />
            </Array>
          </mxGeometry>
        </mxCell>
        <mxCell id="GgVH_stJGBZSjANrIJAW-191" value="Image" style="swimlane;fontStyle=0;childLayout=stackLayout;horizontal=1;startSize=30;horizontalStack=0;resizeParent=1;resizeParentMax=0;resizeLast=0;collapsible=1;marginBottom=0;whiteSpace=wrap;html=1;" parent="WIyWlLk6GJQsqaUBKTNV-1" vertex="1">
          <mxGeometry x="145" y="100" width="105" height="100" as="geometry" />
        </mxCell>
        <mxCell id="GgVH_stJGBZSjANrIJAW-192" value="&lt;u style=&quot;text-align: center; text-wrap: nowrap;&quot;&gt;Image_id&lt;/u&gt;" style="text;strokeColor=none;fillColor=none;align=left;verticalAlign=middle;spacingLeft=4;spacingRight=4;overflow=hidden;points=[[0,0.5],[1,0.5]];portConstraint=eastwest;rotatable=0;whiteSpace=wrap;html=1;" parent="GgVH_stJGBZSjANrIJAW-191" vertex="1">
          <mxGeometry y="30" width="105" height="40" as="geometry" />
        </mxCell>
        <mxCell id="GgVH_stJGBZSjANrIJAW-193" value="&lt;span style=&quot;text-align: center; text-wrap: nowrap;&quot;&gt;Description&lt;/span&gt;" style="text;strokeColor=none;fillColor=none;align=left;verticalAlign=middle;spacingLeft=4;spacingRight=4;overflow=hidden;points=[[0,0.5],[1,0.5]];portConstraint=eastwest;rotatable=0;whiteSpace=wrap;html=1;" parent="GgVH_stJGBZSjANrIJAW-191" vertex="1">
          <mxGeometry y="70" width="105" height="30" as="geometry" />
        </mxCell>
        <mxCell id="GgVH_stJGBZSjANrIJAW-209" value="&lt;span style=&quot;font-weight: 700;&quot;&gt;Equipment&lt;/span&gt;" style="swimlane;fontStyle=0;childLayout=stackLayout;horizontal=1;startSize=30;horizontalStack=0;resizeParent=1;resizeParentMax=0;resizeLast=0;collapsible=1;marginBottom=0;whiteSpace=wrap;html=1;" parent="WIyWlLk6GJQsqaUBKTNV-1" vertex="1">
          <mxGeometry x="200" y="-210" width="140" height="150" as="geometry" />
        </mxCell>
        <mxCell id="GgVH_stJGBZSjANrIJAW-210" value="&lt;u style=&quot;text-align: center; text-wrap: nowrap;&quot;&gt;Equi_id&lt;/u&gt;" style="text;strokeColor=none;fillColor=none;align=left;verticalAlign=middle;spacingLeft=4;spacingRight=4;overflow=hidden;points=[[0,0.5],[1,0.5]];portConstraint=eastwest;rotatable=0;whiteSpace=wrap;html=1;" parent="GgVH_stJGBZSjANrIJAW-209" vertex="1">
          <mxGeometry y="30" width="140" height="30" as="geometry" />
        </mxCell>
        <mxCell id="GgVH_stJGBZSjANrIJAW-211" value="&lt;span style=&quot;text-align: center; text-wrap: nowrap;&quot;&gt;Name&lt;/span&gt;" style="text;strokeColor=none;fillColor=none;align=left;verticalAlign=middle;spacingLeft=4;spacingRight=4;overflow=hidden;points=[[0,0.5],[1,0.5]];portConstraint=eastwest;rotatable=0;whiteSpace=wrap;html=1;" parent="GgVH_stJGBZSjANrIJAW-209" vertex="1">
          <mxGeometry y="60" width="140" height="30" as="geometry" />
        </mxCell>
        <mxCell id="GgVH_stJGBZSjANrIJAW-212" value="&lt;span style=&quot;text-align: center; text-wrap: nowrap;&quot;&gt;Instruction&lt;/span&gt;" style="text;strokeColor=none;fillColor=none;align=left;verticalAlign=middle;spacingLeft=4;spacingRight=4;overflow=hidden;points=[[0,0.5],[1,0.5]];portConstraint=eastwest;rotatable=0;whiteSpace=wrap;html=1;" parent="GgVH_stJGBZSjANrIJAW-209" vertex="1">
          <mxGeometry y="90" width="140" height="30" as="geometry" />
        </mxCell>
        <mxCell id="GgVH_stJGBZSjANrIJAW-213" value="&lt;span style=&quot;text-align: center; text-wrap: nowrap;&quot;&gt;Image_id&lt;/span&gt;" style="text;strokeColor=none;fillColor=none;align=left;verticalAlign=middle;spacingLeft=4;spacingRight=4;overflow=hidden;points=[[0,0.5],[1,0.5]];portConstraint=eastwest;rotatable=0;whiteSpace=wrap;html=1;" parent="GgVH_stJGBZSjANrIJAW-209" vertex="1">
          <mxGeometry y="120" width="140" height="30" as="geometry" />
        </mxCell>
        <mxCell id="GgVH_stJGBZSjANrIJAW-214" style="edgeStyle=orthogonalEdgeStyle;rounded=0;orthogonalLoop=1;jettySize=auto;html=1;exitX=0;exitY=0.5;exitDx=0;exitDy=0;" parent="WIyWlLk6GJQsqaUBKTNV-1" source="GgVH_stJGBZSjANrIJAW-157" target="GgVH_stJGBZSjANrIJAW-210" edge="1">
          <mxGeometry relative="1" as="geometry" />
        </mxCell>
        <mxCell id="GgVH_stJGBZSjANrIJAW-215" value="&lt;span style=&quot;font-weight: 700;&quot;&gt;Episodes&lt;/span&gt;" style="swimlane;fontStyle=0;childLayout=stackLayout;horizontal=1;startSize=30;horizontalStack=0;resizeParent=1;resizeParentMax=0;resizeLast=0;collapsible=1;marginBottom=0;whiteSpace=wrap;html=1;" parent="WIyWlLk6GJQsqaUBKTNV-1" vertex="1">
          <mxGeometry x="430" y="30" width="140" height="180" as="geometry" />
        </mxCell>
        <mxCell id="GgVH_stJGBZSjANrIJAW-216" value="&lt;u style=&quot;text-align: center; text-wrap: nowrap;&quot;&gt;Episode_id&lt;/u&gt;" style="text;strokeColor=none;fillColor=none;align=left;verticalAlign=middle;spacingLeft=4;spacingRight=4;overflow=hidden;points=[[0,0.5],[1,0.5]];portConstraint=eastwest;rotatable=0;whiteSpace=wrap;html=1;" parent="GgVH_stJGBZSjANrIJAW-215" vertex="1">
          <mxGeometry y="30" width="140" height="30" as="geometry" />
        </mxCell>
        <mxCell id="GgVH_stJGBZSjANrIJAW-217" value="&lt;span style=&quot;text-align: center; text-wrap: nowrap;&quot;&gt;Image_id&lt;/span&gt;" style="text;strokeColor=none;fillColor=none;align=left;verticalAlign=middle;spacingLeft=4;spacingRight=4;overflow=hidden;points=[[0,0.5],[1,0.5]];portConstraint=eastwest;rotatable=0;whiteSpace=wrap;html=1;" parent="GgVH_stJGBZSjANrIJAW-215" vertex="1">
          <mxGeometry y="60" width="140" height="30" as="geometry" />
        </mxCell>
        <mxCell id="GgVH_stJGBZSjANrIJAW-218" value="&lt;span style=&quot;text-align: center; text-wrap: nowrap;&quot;&gt;Cuisine_id&lt;/span&gt;" style="text;strokeColor=none;fillColor=none;align=left;verticalAlign=middle;spacingLeft=4;spacingRight=4;overflow=hidden;points=[[0,0.5],[1,0.5]];portConstraint=eastwest;rotatable=0;whiteSpace=wrap;html=1;" parent="GgVH_stJGBZSjANrIJAW-215" vertex="1">
          <mxGeometry y="90" width="140" height="30" as="geometry" />
        </mxCell>
        <mxCell id="GgVH_stJGBZSjANrIJAW-219" value="&lt;span style=&quot;text-align: center; text-wrap: nowrap;&quot;&gt;Recipe_id&lt;/span&gt;" style="text;strokeColor=none;fillColor=none;align=left;verticalAlign=middle;spacingLeft=4;spacingRight=4;overflow=hidden;points=[[0,0.5],[1,0.5]];portConstraint=eastwest;rotatable=0;whiteSpace=wrap;html=1;" parent="GgVH_stJGBZSjANrIJAW-215" vertex="1">
          <mxGeometry y="120" width="140" height="30" as="geometry" />
        </mxCell>
        <mxCell id="GgVH_stJGBZSjANrIJAW-220" value="&lt;span style=&quot;text-align: center; text-wrap: nowrap;&quot;&gt;Judge_id&lt;/span&gt;" style="text;strokeColor=none;fillColor=none;align=left;verticalAlign=middle;spacingLeft=4;spacingRight=4;overflow=hidden;points=[[0,0.5],[1,0.5]];portConstraint=eastwest;rotatable=0;whiteSpace=wrap;html=1;" parent="GgVH_stJGBZSjANrIJAW-215" vertex="1">
          <mxGeometry y="150" width="140" height="30" as="geometry" />
        </mxCell>
        <mxCell id="GgVH_stJGBZSjANrIJAW-225" value="&lt;span style=&quot;font-weight: 700;&quot;&gt;Cuisine&lt;/span&gt;" style="swimlane;fontStyle=0;childLayout=stackLayout;horizontal=1;startSize=30;horizontalStack=0;resizeParent=1;resizeParentMax=0;resizeLast=0;collapsible=1;marginBottom=0;whiteSpace=wrap;html=1;" parent="WIyWlLk6GJQsqaUBKTNV-1" vertex="1">
          <mxGeometry x="270" y="-40" width="110" height="120" as="geometry" />
        </mxCell>
        <mxCell id="GgVH_stJGBZSjANrIJAW-226" value="&lt;u style=&quot;text-align: center; text-wrap: nowrap;&quot;&gt;Cui_id&lt;/u&gt;" style="text;strokeColor=none;fillColor=none;align=left;verticalAlign=middle;spacingLeft=4;spacingRight=4;overflow=hidden;points=[[0,0.5],[1,0.5]];portConstraint=eastwest;rotatable=0;whiteSpace=wrap;html=1;" parent="GgVH_stJGBZSjANrIJAW-225" vertex="1">
          <mxGeometry y="30" width="110" height="30" as="geometry" />
        </mxCell>
        <mxCell id="GgVH_stJGBZSjANrIJAW-227" value="&lt;span style=&quot;text-align: center; text-wrap: nowrap;&quot;&gt;Image_id&lt;/span&gt;" style="text;strokeColor=none;fillColor=none;align=left;verticalAlign=middle;spacingLeft=4;spacingRight=4;overflow=hidden;points=[[0,0.5],[1,0.5]];portConstraint=eastwest;rotatable=0;whiteSpace=wrap;html=1;" parent="GgVH_stJGBZSjANrIJAW-225" vertex="1">
          <mxGeometry y="60" width="110" height="30" as="geometry" />
        </mxCell>
        <mxCell id="GgVH_stJGBZSjANrIJAW-228" value="&lt;span style=&quot;text-align: center; text-wrap: nowrap;&quot;&gt;Name&lt;/span&gt;" style="text;strokeColor=none;fillColor=none;align=left;verticalAlign=middle;spacingLeft=4;spacingRight=4;overflow=hidden;points=[[0,0.5],[1,0.5]];portConstraint=eastwest;rotatable=0;whiteSpace=wrap;html=1;" parent="GgVH_stJGBZSjANrIJAW-225" vertex="1">
          <mxGeometry y="90" width="110" height="30" as="geometry" />
        </mxCell>
        <mxCell id="GgVH_stJGBZSjANrIJAW-231" value="&lt;span style=&quot;font-weight: 700;&quot;&gt;Thematic Category&lt;/span&gt;" style="swimlane;fontStyle=0;childLayout=stackLayout;horizontal=1;startSize=30;horizontalStack=0;resizeParent=1;resizeParentMax=0;resizeLast=0;collapsible=1;marginBottom=0;whiteSpace=wrap;html=1;" parent="WIyWlLk6GJQsqaUBKTNV-1" vertex="1">
          <mxGeometry x="-56" y="310" width="106" height="150" as="geometry" />
        </mxCell>
        <mxCell id="GgVH_stJGBZSjANrIJAW-232" value="&lt;u style=&quot;text-align: center; text-wrap: nowrap;&quot;&gt;Them-id&lt;/u&gt;" style="text;strokeColor=none;fillColor=none;align=left;verticalAlign=middle;spacingLeft=4;spacingRight=4;overflow=hidden;points=[[0,0.5],[1,0.5]];portConstraint=eastwest;rotatable=0;whiteSpace=wrap;html=1;" parent="GgVH_stJGBZSjANrIJAW-231" vertex="1">
          <mxGeometry y="30" width="106" height="30" as="geometry" />
        </mxCell>
        <mxCell id="GgVH_stJGBZSjANrIJAW-233" value="&lt;span style=&quot;text-align: center; text-wrap: nowrap;&quot;&gt;Image_id&lt;/span&gt;" style="text;strokeColor=none;fillColor=none;align=left;verticalAlign=middle;spacingLeft=4;spacingRight=4;overflow=hidden;points=[[0,0.5],[1,0.5]];portConstraint=eastwest;rotatable=0;whiteSpace=wrap;html=1;" parent="GgVH_stJGBZSjANrIJAW-231" vertex="1">
          <mxGeometry y="60" width="106" height="30" as="geometry" />
        </mxCell>
        <mxCell id="GgVH_stJGBZSjANrIJAW-234" value="&lt;span style=&quot;text-align: center; text-wrap: nowrap;&quot;&gt;Name&lt;/span&gt;" style="text;strokeColor=none;fillColor=none;align=left;verticalAlign=middle;spacingLeft=4;spacingRight=4;overflow=hidden;points=[[0,0.5],[1,0.5]];portConstraint=eastwest;rotatable=0;whiteSpace=wrap;html=1;" parent="GgVH_stJGBZSjANrIJAW-231" vertex="1">
          <mxGeometry y="90" width="106" height="30" as="geometry" />
        </mxCell>
        <mxCell id="GgVH_stJGBZSjANrIJAW-235" value="&lt;span style=&quot;text-align: center; text-wrap: nowrap;&quot;&gt;Description&lt;/span&gt;" style="text;strokeColor=none;fillColor=none;align=left;verticalAlign=middle;spacingLeft=4;spacingRight=4;overflow=hidden;points=[[0,0.5],[1,0.5]];portConstraint=eastwest;rotatable=0;whiteSpace=wrap;html=1;" parent="GgVH_stJGBZSjANrIJAW-231" vertex="1">
          <mxGeometry y="120" width="106" height="30" as="geometry" />
        </mxCell>
        <mxCell id="GgVH_stJGBZSjANrIJAW-236" style="edgeStyle=orthogonalEdgeStyle;rounded=0;orthogonalLoop=1;jettySize=auto;html=1;exitX=1;exitY=0.5;exitDx=0;exitDy=0;entryX=0;entryY=0.5;entryDx=0;entryDy=0;" parent="WIyWlLk6GJQsqaUBKTNV-1" target="GgVH_stJGBZSjANrIJAW-192" edge="1">
          <mxGeometry relative="1" as="geometry">
            <mxPoint x="2.2737367544323206e-13" y="554" as="sourcePoint" />
            <mxPoint x="145.00000000000023" y="144" as="targetPoint" />
            <Array as="points">
              <mxPoint x="60" y="554" />
              <mxPoint x="60" y="150" />
            </Array>
          </mxGeometry>
        </mxCell>
        <mxCell id="GgVH_stJGBZSjANrIJAW-238" style="edgeStyle=orthogonalEdgeStyle;rounded=0;orthogonalLoop=1;jettySize=auto;html=1;exitX=0;exitY=0.5;exitDx=0;exitDy=0;entryX=1.003;entryY=0.172;entryDx=0;entryDy=0;entryPerimeter=0;" parent="WIyWlLk6GJQsqaUBKTNV-1" source="nw-LskAQN57HLbFkefRe-14" target="GgVH_stJGBZSjANrIJAW-162" edge="1">
          <mxGeometry relative="1" as="geometry" />
        </mxCell>
        <mxCell id="GgVH_stJGBZSjANrIJAW-241" style="edgeStyle=elbowEdgeStyle;rounded=0;orthogonalLoop=1;jettySize=auto;html=1;exitX=1;exitY=0.75;exitDx=0;exitDy=0;entryX=-0.004;entryY=0.869;entryDx=0;entryDy=0;entryPerimeter=0;" parent="WIyWlLk6GJQsqaUBKTNV-1" source="nw-LskAQN57HLbFkefRe-14" target="GgVH_stJGBZSjANrIJAW-192" edge="1">
          <mxGeometry relative="1" as="geometry">
            <mxPoint x="140" y="163" as="targetPoint" />
          </mxGeometry>
        </mxCell>
        <mxCell id="GgVH_stJGBZSjANrIJAW-243" style="edgeStyle=elbowEdgeStyle;rounded=0;orthogonalLoop=1;jettySize=auto;html=1;exitX=1;exitY=0.5;exitDx=0;exitDy=0;entryX=0.994;entryY=0.379;entryDx=0;entryDy=0;entryPerimeter=0;" parent="WIyWlLk6GJQsqaUBKTNV-1" source="nw-LskAQN57HLbFkefRe-15" target="GgVH_stJGBZSjANrIJAW-192" edge="1">
          <mxGeometry relative="1" as="geometry">
            <Array as="points">
              <mxPoint x="270" y="230" />
            </Array>
          </mxGeometry>
        </mxCell>
      </root>
    </mxGraphModel>
  </diagram>
</mxfile>
